<svg id="Layer_1" data-name="Layer 1" xmlns="http://www.w3.org/2000/svg" viewBox="0 0 48 48"><defs><style>.cls-1{fill:#2d3142;}.cls-2{fill:#ffb600;}</style></defs><path class="cls-1" d="M42.5,37H37V24a2.5,2.5,0,0,0,2-2.45V19.62a8.5,8.5,0,1,0-5,0V21.5A2.5,2.5,0,0,0,36,24V37H29V19.5A2.5,2.5,0,0,0,26.5,17H6.5A2.5,2.5,0,0,0,4,19.5v18H4A2.49,2.49,0,0,0,5.5,42H7v1.5A1.5,1.5,0,0,0,8.5,45h5A1.5,1.5,0,0,0,15,43.5V42H33v1.5A1.5,1.5,0,0,0,34.5,45h5A1.5,1.5,0,0,0,41,43.5V42h1.5a2.5,2.5,0,0,0,0-5ZM29,12H30.5a.5.5,0,0,0,0-1H29a7.47,7.47,0,0,1,7-7V5.5a.5.5,0,0,0,1,0V4a7.47,7.47,0,0,1,7,7H42.5a.5.5,0,0,0,0,1H44a7.47,7.47,0,0,1-7,7V17.5a.5.5,0,0,0-1,0V19A7.47,7.47,0,0,1,29,12Zm6,9.5V19.86a8.11,8.11,0,0,0,3,0V21.5a1.5,1.5,0,0,1-3,0Zm-30-2A1.5,1.5,0,0,1,6.5,18h20A1.5,1.5,0,0,1,28,19.5V37H5.5a2.73,2.73,0,0,0-.5,0Zm9,24a.5.5,0,0,1-.5.5h-5a.5.5,0,0,1-.5-.5V42h6Zm26,0a.5.5,0,0,1-.5.5h-5a.5.5,0,0,1-.5-.5V42h6ZM42.5,41H5.5a1.5,1.5,0,0,1,0-3h37a1.5,1.5,0,0,1,0,3Z"/><path class="cls-1" d="M7.5,32h7a.5.5,0,0,0,0-1h-7a.5.5,0,0,0,0,1Z"/><path class="cls-1" d="M7.5,35h5a.5.5,0,0,0,0-1h-5a.5.5,0,0,0,0,1Z"/><path class="cls-2" d="M21.82,24.44A1.5,1.5,0,0,0,23,23V17.5a.5.5,0,0,0-.5-.5h-12a.5.5,0,0,0-.5.5V23a1.53,1.53,0,0,0,2.9.69c.32-.64.53-.64.6-.64.48,0,.72.29,1.1.8A2.32,2.32,0,0,0,16.5,25a2.32,2.32,0,0,0,1.9-1.2c.39-.51.63-.8,1.1-.8.07,0,.29,0,.61.64A1.5,1.5,0,0,0,21.82,24.44Z"/><rect class="cls-2" x="21" y="30" width="5" height="5" rx="1.5"/><path class="cls-2" d="M40.27,7.73a.51.51,0,0,0-.71,0l-2.82,2.82a.93.93,0,0,0-.24-.05,1,1,0,1,0,1,1,.93.93,0,0,0,0-.24l2.82-2.82A.51.51,0,0,0,40.27,7.73Z"/></svg>