<svg xmlns="http://www.w3.org/2000/svg" viewBox="0 0 512 512"><title>Fat</title><g id="artwork"><g id="_17_Fat" data-name="17_Fat"><path d="M356.56,343.52s-1.06-.15-3-.35c-1.69-15.63-7.39-61.39-7.39-61.39-1.63,1.42-3.95,3.41-6.9,5.75,6-8.11,9.26-16.94,9.26-26.18,0-3.94,1.75-9.77-1.76-11.59q-7.31-3.78-14.52-7c5.47,1.81,10.57,3.64,15.27,5.42,0,0,13.24-64-8.3-97.69,0,0-55.78-9.21-55.78-89.86H257.85s5.65,62.28-41.93,62.28h-1.58c-47.58,0-41.93-62.28-41.93-62.28H146.78c0,80.65-55.78,89.86-55.78,89.86-21.54,33.69-8,99.33-8,99.33a39.23,39.23,0,0,0-1.76,11.58,41.32,41.32,0,0,0,4.84,19.09l-.69-.62c-5.66,8.62-10.23,55.52-11,63.68l-.22,0s-8.19,89.4.26,117.7H355.79S363.12,378.48,356.56,343.52Z" style="fill:#dcd3d4"/><path d="M387.93,245.7c3.5,1.82,1.75,7.65,1.75,11.59,0,39.44-59.83,71.43-133.64,71.43-51.18,0-95.63-15.37-118.08-38-9.94-10-15.57-21.39-15.57-33.48a39.22,39.22,0,0,1,1.75-11.58S242.27,170.29,387.93,245.7Z" style="fill:#f3b5af"/><path d="M259.11,219.4a376.94,376.94,0,0,0-135.28,24.67s-13.24-64,8.3-97.69c0,0,55.78-9.21,55.78-89.86h25.62s-5.65,62.28,41.93,62.28H257c47.58,0,41.93-62.28,41.93-62.28H324.6c0,80.65,55.78,89.86,55.78,89.86,21.54,33.69,8.29,97.69,8.29,97.69A376.94,376.94,0,0,0,253.39,219.4" style="fill:#ffeef0"/><path d="M126.53,275.75c10.86,9.81,59.14,51.23,132.84,50.73,70.15-.48,116.38-38.62,128-48.76,0,0,7.06,56.62,7.8,65.42,0,0-108.56-16.47-136.12,56.82h-8s-29.37-70.23-135.6-59.31C115.44,340.65,120.33,285.2,126.53,275.75Z" style="fill:#fff"/><path d="M119.65,220.71l4.18,23.36s124.92-51.9,264.56-.59l3-22.77S250.6,167.31,119.65,220.71Z" style="fill:#4966a2"/><path d="M115.32,343.46s-8.18,89.4.27,117.7H396.92s7.32-82.74.76-117.7c0,0-95.31-14-132.81,54.61,0,0-7.09,15.09-16,0C248.9,398.07,222.61,330.73,115.32,343.46Z" style="fill:#f3b5af"/><path d="M395.16,341.81s-101.79-13.09-138.66,67c-40.13-81.75-138-66.91-138-66.91l-3.17,25C246,353.8,230.73,461.22,230.73,461.22l25.77-.06h26.42s-15.3-107.42,115.41-94.33Z" style="fill:#e08476"/><path d="M251.29,282.78a7.27,7.27,0,1,1,10.28.15A7.26,7.26,0,0,1,251.29,282.78Z" style="fill:#122546"/><path d="M392.45,273.11a46.4,46.4,0,0,0,3.7-18A45.39,45.39,0,0,0,394.2,242c2.47-14,10.22-67.61-9.74-98.82L383,140.92l-2.61-.46c-2.07-.36-50.78-9.71-50.78-83.94v-6H291.44l.58,6.53c0,.3,2.5,30.34-12,46.14-5.91,6.46-13.76,9.61-24,9.61h-1.58c-10.23,0-18.07-3.15-24-9.61-14.46-15.8-12-45.84-12-46.13l.6-6.54h-38.2v6c0,74.23-48.71,83.58-50.75,83.94l-2.64.43-1.44,2.26c-22.6,35.34-9.68,99.43-9.12,102.14l.5,2.39a44.78,44.78,0,0,0-.63,7.39,46,46,0,0,0,3.4,17.21c-3.41,14.63-23,104.75-10.6,189.2l11.87-1.74c-5.58-38-4.36-77.8-1.15-110.84,15.08-1.55,56.77-3.53,90.79,16.35,19.55,11.42,28.29,25.24,32.18,34.82a14.33,14.33,0,0,0,6.91,7.46v53.63h12V408.1a14.61,14.61,0,0,0,8.15-8c4.05-9.61,13-23.47,32.88-34.88,33.24-19.13,73.56-17.77,88.86-16.38,3.21,33,4.43,72.83-1.16,110.85l11.87,1.74C415.05,378.5,396.33,290,392.45,273.11Zm-263.6-18a32.71,32.71,0,0,1,.79-7.09A368.72,368.72,0,0,1,255.28,225.4a369.15,369.15,0,0,1,128.27,23.54,33.34,33.34,0,0,1,.6,6.13c0,16.76-12.78,32.81-36,45.21-24.39,13-56.95,20.22-91.68,20.22-48,0-91.63-13.87-113.82-36.18C133.5,275.1,128.85,265.26,128.85,255.07ZM135,151.65A70.72,70.72,0,0,0,163,136.18c13-11.55,28.39-33.59,29.8-73.66h13.51c0,11.15,1.78,34,15.28,48.74,8.2,9,19.26,13.54,32.87,13.54h1.58c13.6,0,24.66-4.56,32.87-13.54,13.49-14.78,15.28-37.59,15.27-48.74h13.52c1.4,40.07,16.79,62.11,29.8,73.66a70.76,70.76,0,0,0,28.05,15.47c9.67,16.88,10.86,41.39,9.83,60.76-10.93-3.52-22.1-6.6-33.34-9.17l-2.67,11.7c11.82,2.71,23.59,6,35,9.76-.42,4-.89,7.57-1.31,10.42a380.87,380.87,0,0,0-125-21.72h-5.77a380.91,380.91,0,0,0-125,21.72c-.42-2.83-.88-6.34-1.3-10.32,19.62-6.59,103.78-31.57,204.18-13.73l2.1-11.82c-61.42-10.91-116.49-6-151.88,0a397.73,397.73,0,0,0-55.38,13.25C124.11,193.09,125.29,168.55,135,151.65ZM297.29,354.87c-22.73,13.08-33.18,29.31-38,40.61a2.54,2.54,0,0,1-2.32,1.59h-.22a2.53,2.53,0,0,1-2.34-1.51c-4.59-11.31-14.78-27.55-37.24-40.67-35.22-20.58-77.52-19.72-95.55-18.16,2.42-20.78,5.45-38.06,7.66-49.33a70.77,70.77,0,0,0,4.84,5.38c24.36,24.5,71.23,39.72,122.33,39.72,36.67,0,71.24-7.69,97.33-21.64,12.47-6.66,22.37-14.42,29.45-22.92,2.21,11.28,5.18,28.35,7.57,48.8C372.83,335.38,331.78,335,297.29,354.87Z" style="fill:#142546"/><polygon points="100.69 261.52 61.98 261.52 70.83 252.67 62.34 244.18 39.36 267.16 63.05 290.85 71.53 282.37 62.69 273.52 100.69 273.52 100.69 261.52" style="fill:#142546"/><polygon points="448.95 244.18 440.47 252.67 449.31 261.52 411.31 261.52 411.31 273.52 450.02 273.52 441.17 282.37 449.66 290.85 472.64 267.87 448.95 244.18" style="fill:#142546"/></g></g></svg>