<?xml version="1.0" encoding="utf-8"?>
<!-- Generator: Adobe Illustrator 16.0.0, SVG Export Plug-In . SVG Version: 6.00 Build 0)  -->
<!DOCTYPE svg PUBLIC "-//W3C//DTD SVG 1.1//EN" "http://www.w3.org/Graphics/SVG/1.1/DTD/svg11.dtd">
<svg version="1.1" id="icons" xmlns="http://www.w3.org/2000/svg" xmlns:xlink="http://www.w3.org/1999/xlink" x="0px" y="0px"
	 width="64px" height="64px" viewBox="0 0 64 64" enable-background="new 0 0 64 64" xml:space="preserve">
<g>
	<g>
		<path fill="#EAC6BB" d="M32,51v12H11.99c0,0-4-11.99-4-19.99c0-0.62,0.04-1.29,0.12-2.01H22C28.64,41,32,44.37,32,51z"/>
	</g>
	<g>
		<path fill="#EAC6BB" d="M53.93,32h-0.01H10.07c2.069-7.34,4.92-15.27,4.92-19c0-5.84-2-12-2-12h38.02c0,0-2,6.16-2,12
			C49.01,16.73,51.86,24.66,53.93,32z"/>
	</g>
	<g>
		<path fill="#EAC6BB" d="M55.89,41c0.08,0.72,0.12,1.39,0.12,2.01c0,8-4,19.99-4,19.99H32V51c0-6.63,3.36-9.99,10-9.99V41H55.89z"
			/>
	</g>
	<g>
		<path fill="#656D78" d="M42,41.01c-6.64,0-10,3.36-10,9.99c0-6.63-3.36-10-10-10H8.11c0.29-2.6,1.05-5.74,1.96-9h43.85h0.01
			c0.91,3.26,1.67,6.4,1.96,9H42V41.01z"/>
	</g>
</g>
<g>
	<g>
		<g>
			<path d="M11.987,64c-0.419,0-0.809-0.265-0.948-0.684C10.873,62.82,6.99,51.077,6.99,43.008c0-4.464,2.011-11.071,3.955-17.461
				C12.511,20.401,13.99,15.541,13.99,13c0-5.616-1.93-11.632-1.949-11.691c-0.171-0.525,0.117-1.09,0.643-1.26
				c0.529-0.17,1.091,0.118,1.26,0.643C14.027,0.949,15.99,7.071,15.99,13c0,2.839-1.451,7.607-3.132,13.13
				C11.046,32.088,8.99,38.842,8.99,43.008c0,7.748,3.906,19.558,3.945,19.676c0.175,0.524-0.108,1.091-0.632,1.265
				C12.198,63.983,12.092,64,11.987,64z"/>
		</g>
		<g>
			<path d="M52.011,64c-0.104,0-0.211-0.017-0.316-0.052c-0.523-0.174-0.807-0.74-0.632-1.265
				c0.039-0.118,3.945-11.933,3.945-19.676c0-4.166-2.056-10.92-3.868-16.878c-1.681-5.522-3.132-10.291-3.132-13.13
				c0-5.929,1.963-12.051,2.047-12.309c0.17-0.524,0.732-0.813,1.26-0.643c0.525,0.17,0.813,0.734,0.643,1.26
				c-0.02,0.06-1.949,6.086-1.949,11.691c0,2.541,1.479,7.401,3.045,12.547c1.944,6.39,3.955,12.997,3.955,17.461
				c0,8.069-3.883,19.813-4.049,20.309C52.819,63.735,52.43,64,52.011,64z"/>
		</g>
		<g>
			<path d="M53.925,33.002H10.073c-0.553,0-1-0.447-1-1s0.447-1,1-1h43.852c0.553,0,1,0.447,1,1S54.478,33.002,53.925,33.002z"/>
		</g>
		<g>
			<path d="M32.005,63.999c-0.553,0-1-0.447-1-1V51.005c0-0.553,0.447-1,1-1s1,0.447,1,1v11.994
				C33.005,63.552,32.558,63.999,32.005,63.999z"/>
		</g>
		<g>
			<path d="M32.006,28.008c-0.553,0-1-0.447-1-1v-1.984c0-0.553,0.447-1,1-1s1,0.447,1,1v1.984
				C33.006,27.561,32.559,28.008,32.006,28.008z"/>
		</g>
		<g>
			<path d="M32.005,52.005c-0.553,0-1-0.447-1-1c0-6.059-2.945-9.004-9.004-9.004c-0.553,0-1-0.447-1-1s0.447-1,1-1
				c7.199,0,11.004,3.805,11.004,11.004C33.005,51.558,32.558,52.005,32.005,52.005z"/>
		</g>
		<g>
			<path d="M22.003,42.003H8.11c-0.553,0-1-0.447-1-1s0.447-1,1-1h13.893c0.553,0,1,0.447,1,1S22.556,42.003,22.003,42.003z"/>
		</g>
		<g>
			<path d="M31.999,52.005c-0.553,0-1-0.447-1-1c0-7.195,3.803-10.998,10.998-10.998c0.553,0,1,0.447,1,1s-0.447,1-1,1
				c-6.055,0-8.998,2.943-8.998,8.998C32.999,51.558,32.552,52.005,31.999,52.005z"/>
		</g>
		<g>
			<path d="M55.887,42.003H42.001c-0.553,0-1-0.447-1-1s0.447-1,1-1h13.886c0.553,0,1,0.447,1,1S56.439,42.003,55.887,42.003z"/>
		</g>
	</g>
	<g>
		<g>
			<path d="M12.001,14.002H0.999c-0.553,0-1-0.447-1-1s0.447-1,1-1h11.002c0.553,0,1,0.447,1,1S12.554,14.002,12.001,14.002z"/>
		</g>
		<g>
			<path d="M10.001,16.002c-0.256,0-0.512-0.098-0.707-0.293c-0.391-0.391-0.391-1.023,0-1.414l2-2c0.391-0.391,1.023-0.391,1.414,0
				s0.391,1.023,0,1.414l-2,2C10.513,15.904,10.257,16.002,10.001,16.002z"/>
		</g>
		<g>
			<path d="M12.001,14.002c-0.256,0-0.512-0.098-0.707-0.293l-2-2c-0.391-0.391-0.391-1.023,0-1.414s1.023-0.391,1.414,0l2,2
				c0.391,0.391,0.391,1.023,0,1.414C12.513,13.904,12.257,14.002,12.001,14.002z"/>
		</g>
		<g>
			<g>
				<path d="M9.999,7.002h-9c-0.553,0-1-0.447-1-1s0.447-1,1-1h9c0.553,0,1,0.447,1,1S10.552,7.002,9.999,7.002z"/>
			</g>
			<g>
				<path d="M7.999,9.002c-0.256,0-0.512-0.098-0.707-0.293c-0.391-0.391-0.391-1.023,0-1.414l2-2c0.391-0.391,1.023-0.391,1.414,0
					s0.391,1.023,0,1.414l-2,2C8.511,8.904,8.255,9.002,7.999,9.002z"/>
			</g>
			<g>
				<path d="M9.999,7.002c-0.256,0-0.512-0.098-0.707-0.293l-2-2c-0.391-0.391-0.391-1.023,0-1.414s1.023-0.391,1.414,0l2,2
					c0.391,0.391,0.391,1.023,0,1.414C10.511,6.904,10.255,7.002,9.999,7.002z"/>
			</g>
		</g>
		<g>
			<g>
				<path d="M9.999,21.002h-9c-0.553,0-1-0.447-1-1s0.447-1,1-1h9c0.553,0,1,0.447,1,1S10.552,21.002,9.999,21.002z"/>
			</g>
			<g>
				<path d="M7.999,23.002c-0.256,0-0.512-0.098-0.707-0.293c-0.391-0.391-0.391-1.023,0-1.414l2-2c0.391-0.391,1.023-0.391,1.414,0
					s0.391,1.023,0,1.414l-2,2C8.511,22.904,8.255,23.002,7.999,23.002z"/>
			</g>
			<g>
				<path d="M9.999,21.002c-0.256,0-0.512-0.098-0.707-0.293l-2-2c-0.391-0.391-0.391-1.023,0-1.414s1.023-0.391,1.414,0l2,2
					c0.391,0.391,0.391,1.023,0,1.414C10.511,20.904,10.255,21.002,9.999,21.002z"/>
			</g>
		</g>
	</g>
	<g>
		<g>
			<path d="M63.001,14.002H51.999c-0.553,0-1-0.447-1-1s0.447-1,1-1h11.002c0.553,0,1,0.447,1,1S63.554,14.002,63.001,14.002z"/>
		</g>
		<g>
			<path d="M53.999,16.002c-0.256,0-0.512-0.098-0.707-0.293l-2-2c-0.391-0.391-0.391-1.023,0-1.414s1.023-0.391,1.414,0l2,2
				c0.391,0.391,0.391,1.023,0,1.414C54.511,15.904,54.255,16.002,53.999,16.002z"/>
		</g>
		<g>
			<path d="M51.999,14.002c-0.256,0-0.512-0.098-0.707-0.293c-0.391-0.391-0.391-1.023,0-1.414l2-2c0.391-0.391,1.023-0.391,1.414,0
				s0.391,1.023,0,1.414l-2,2C52.511,13.904,52.255,14.002,51.999,14.002z"/>
		</g>
		<g>
			<g>
				<path d="M63.001,7.002h-9c-0.553,0-1-0.447-1-1s0.447-1,1-1h9c0.553,0,1,0.447,1,1S63.554,7.002,63.001,7.002z"/>
			</g>
			<g>
				<path d="M56.001,9.002c-0.256,0-0.512-0.098-0.707-0.293l-2-2c-0.391-0.391-0.391-1.023,0-1.414s1.023-0.391,1.414,0l2,2
					c0.391,0.391,0.391,1.023,0,1.414C56.513,8.904,56.257,9.002,56.001,9.002z"/>
			</g>
			<g>
				<path d="M54.001,7.002c-0.256,0-0.512-0.098-0.707-0.293c-0.391-0.391-0.391-1.023,0-1.414l2-2c0.391-0.391,1.023-0.391,1.414,0
					s0.391,1.023,0,1.414l-2,2C54.513,6.904,54.257,7.002,54.001,7.002z"/>
			</g>
		</g>
		<g>
			<g>
				<path d="M63.001,21.002h-9c-0.553,0-1-0.447-1-1s0.447-1,1-1h9c0.553,0,1,0.447,1,1S63.554,21.002,63.001,21.002z"/>
			</g>
			<g>
				<path d="M56.001,23.002c-0.256,0-0.512-0.098-0.707-0.293l-2-2c-0.391-0.391-0.391-1.023,0-1.414s1.023-0.391,1.414,0l2,2
					c0.391,0.391,0.391,1.023,0,1.414C56.513,22.904,56.257,23.002,56.001,23.002z"/>
			</g>
			<g>
				<path d="M54.001,21.002c-0.256,0-0.512-0.098-0.707-0.293c-0.391-0.391-0.391-1.023,0-1.414l2-2
					c0.391-0.391,1.023-0.391,1.414,0s0.391,1.023,0,1.414l-2,2C54.513,20.904,54.257,21.002,54.001,21.002z"/>
			</g>
		</g>
	</g>
</g>
</svg>
