<?xml version="1.0" encoding="iso-8859-1"?>
<!-- Generator: Adobe Illustrator 19.0.0, SVG Export Plug-In . SVG Version: 6.00 Build 0)  -->
<svg version="1.1" id="Layer_1" xmlns="http://www.w3.org/2000/svg" xmlns:xlink="http://www.w3.org/1999/xlink" x="0px" y="0px"
	 viewBox="0 0 512 512" style="enable-background:new 0 0 512 512;" xml:space="preserve">
<path style="fill:#F7E9E1;" d="M437.191,504.163H71.576c0,0,0.397-57.898,11-114.228c4.356-23.186,10.435-46.111,18.939-64.627
	c29.771-64.815,27.254-141.364,16.756-203.055C107.114,56.644,86.921,7.837,86.921,7.837h334.924c0,0-20.193,48.807-31.349,114.416
	c-10.498,61.691-13.016,138.24,16.746,203.055c8.503,18.516,14.583,41.441,18.949,64.627
	C436.794,446.265,437.191,504.163,437.191,504.163z"/>
<path style="fill:#DEC7B8;" d="M122.76,325.308c29.771-64.815,27.254-141.364,16.756-203.055
	C128.36,56.644,108.167,7.837,108.167,7.837H86.921c0,0,20.193,48.807,31.349,114.416c10.498,61.691,13.016,138.24-16.756,203.055
	c-8.503,18.516-14.583,41.441-18.939,64.627c-10.603,56.33-11,114.228-11,114.228h21.246c0,0,0.397-57.898,11-114.228
	C108.177,366.749,114.258,343.824,122.76,325.308z"/>
<path style="fill:#6DD0E3;" d="M421.846,7.837c0,0-20.198,48.807-31.347,114.416H118.272C107.113,56.644,86.925,7.837,86.925,7.837
	H421.846z"/>
<path style="fill:#34A4BA;" d="M139.515,122.253h-21.243C107.113,56.644,86.925,7.837,86.925,7.837h21.243
	C108.168,7.837,128.355,56.644,139.515,122.253z"/>
<polygon style="fill:#FFDC7B;" points="114.666,214.572 410.196,214.572 410.196,280.586 114.405,280.586 "/>
<path style="fill:#FFA163;" d="M433.956,214.552h-42.358v9.349c0,1.767,1.433,3.199,3.199,3.199h2.379
	c2.215,0,4.01,1.796,4.01,4.011v32.913c0,2.215-1.795,4.011-4.01,4.011h-2.379c-1.767,0-3.199,1.433-3.199,3.199v9.349h42.358
	c3.573,0,6.469-2.896,6.469-6.47v-53.093C440.425,217.45,437.528,214.552,433.956,214.552z"/>
<path style="fill:#6DD0E3;" d="M437.185,504.163H71.576c0,0,0.251-36.864,5.747-80.384c0.648-5.151,1.369-10.386,2.173-15.673
	c0.92-6.029,1.944-12.11,3.082-18.171h343.615c1.139,6.06,2.163,12.142,3.082,18.171c0.805,5.287,1.526,10.522,2.173,15.673
	C436.935,467.299,437.185,504.163,437.185,504.163z"/>
<g>
	<path style="fill:#34A4BA;" d="M82.578,389.935h21.243c-10.606,56.33-11.003,114.228-11.003,114.228H71.576
		C71.576,504.163,71.973,446.265,82.578,389.935z"/>
	<path style="fill:#34A4BA;" d="M431.449,423.779H77.323c0.648-5.151,1.369-10.386,2.173-15.673h349.78
		C430.08,413.393,430.801,418.628,431.449,423.779z"/>
</g>
<circle cx="254.38" cy="347.429" r="7.835"/>
<path d="M179.968,90.763c39.946,4.849,64.283-8.241,74.486-15.635c8.812,6.239,27.995,16.686,57.687,16.686
	c5.231,0,10.794-0.325,16.677-1.054c4.296-0.532,7.346-4.445,6.814-8.741c-0.533-4.296-4.452-7.348-8.741-6.814
	c-44.395,5.498-66.129-14.896-66.996-15.732c-1.468-1.453-3.43-2.286-5.494-2.286c-0.028,0-0.056,0-0.085,0
	c-2.094,0.023-4.071,0.863-5.528,2.368c-0.863,0.866-21.651,21.145-66.934,15.648c-4.304-0.517-8.202,2.539-8.724,6.836
	C172.609,86.336,175.671,90.242,179.968,90.763z"/>
<path d="M448.261,274.115v-53.093c0-7.889-6.418-14.307-14.305-14.307h-42.358c-0.116,0-0.229,0.013-0.344,0.018h-0.112
	c-0.059-6.475,0.034-13.089,0.292-19.76c0.167-4.325-3.204-7.966-7.528-8.133c-4.329-0.153-7.966,3.205-8.132,7.53
	c-0.265,6.869-0.361,13.685-0.303,20.364h-7.924c-0.115-0.005-0.228-0.018-0.344-0.018c-0.116,0-0.229,0.013-0.344,0.018h-26.82
	c-0.115-0.005-0.228-0.018-0.344-0.018c-0.116,0-0.229,0.013-0.344,0.018h-26.821c-0.115-0.005-0.228-0.018-0.344-0.018
	c-0.116,0-0.229,0.013-0.344,0.018h-26.82c-0.115-0.005-0.228-0.018-0.344-0.018c-0.116,0-0.229,0.013-0.344,0.018h-26.82
	c-0.115-0.005-0.228-0.018-0.344-0.018c-0.116,0-0.229,0.013-0.344,0.018h-26.82c-0.115-0.005-0.228-0.018-0.344-0.018
	c-0.116,0-0.229,0.013-0.344,0.018h-26.82c-0.115-0.005-0.228-0.018-0.344-0.018c-0.116,0-0.229,0.013-0.344,0.018h-26.82
	c-0.115-0.005-0.228-0.018-0.344-0.018c-0.116,0-0.229,0.013-0.344,0.018h-26.82c-0.115-0.005-0.228-0.018-0.344-0.018
	s-0.229,0.013-0.344,0.018h-13.499c0.219-24.223-1.735-49.927-5.826-76.643h253.834c-0.957,6.234-1.806,12.402-2.514,18.414
	c-0.507,4.299,2.567,8.193,6.865,8.7c4.297,0.509,8.194-2.566,8.7-6.866c1.023-8.676,2.326-17.683,3.871-26.771
	c2.048-12.05,4.414-23.546,6.907-34.274c7.286-31.348,15.649-56.123,20.318-68.917c2.205-6.043,3.587-9.419,3.639-9.544
	c0.999-2.418,0.726-5.176-0.727-7.351C426.906,1.306,424.463,0,421.846,0h-0.001H86.925h-0.004c-2.615,0-5.059,1.306-6.514,3.481
	s-1.727,4.933-0.728,7.351c0.199,0.481,20.001,48.847,30.865,112.736c0.002,0.015,0.006,0.028,0.009,0.042
	c4.947,29.129,7.313,57.046,7.067,83.124h-2.953c-4.315,0-7.819,3.49-7.837,7.805l-0.261,66.017
	c-0.005,1.467,0.408,2.888,1.161,4.119c-2.488,9.333-5.461,18.38-8.881,26.96c-1.602,4.021,0.358,8.579,4.379,10.181
	c0.952,0.379,1.933,0.559,2.899,0.559c3.114,0,6.059-1.869,7.283-4.938c3.683-9.242,6.879-18.98,9.541-29.014h87.857
	c4.328,0,7.837-3.509,7.837-7.837c0-4.328-3.509-7.837-7.837-7.837h-88.534l0.199-50.343h16.826v10.013
	c0,4.328,3.509,7.837,7.837,7.837c4.328,0,7.837-3.509,7.837-7.837v-10.013h11.835v29.936c0,4.328,3.509,7.837,7.837,7.837
	c4.328,0,7.837-3.509,7.837-7.837v-29.936h11.835v10.013c0,4.328,3.509,7.837,7.837,7.837c4.328,0,7.837-3.509,7.837-7.837v-10.013
	h11.835v10.013c0,4.328,3.509,7.837,7.837,7.837c4.328,0,7.837-3.509,7.837-7.837v-10.013h11.835v10.013
	c0,4.328,3.509,7.837,7.837,7.837c4.329,0,7.837-3.509,7.837-7.837v-10.013h11.835v29.936c0,4.328,3.508,7.837,7.837,7.837
	c4.329,0,7.837-3.509,7.837-7.837v-29.936h11.835v10.013c0,4.328,3.508,7.837,7.837,7.837s7.837-3.509,7.837-7.837v-10.013h11.835
	v10.013c0,4.328,3.508,7.837,7.837,7.837s7.837-3.509,7.837-7.837v-10.013h11.835v10.013c0,4.328,3.508,7.837,7.837,7.837
	s7.837-3.509,7.837-7.837v-10.013h8.724v1.495c0,5.594,4.185,10.232,9.589,10.942v25.452c-5.404,0.711-9.589,5.347-9.589,10.942
	v1.512H248.686c-4.328,0-7.837,3.509-7.837,7.837c0,4.328,3.509,7.837,7.837,7.837h137.108c3.76,14.143,8.566,27.625,14.323,40.156
	c6.452,14.047,11.999,32.019,16.524,53.519H92.131c2.235-10.635,4.728-20.475,7.447-29.328c1.271-4.137-1.053-8.521-5.19-9.793
	c-4.139-1.272-8.522,1.053-9.793,5.19c-3.662,11.921-6.928,25.466-9.707,40.257c-0.004,0.021-0.01,0.04-0.015,0.061
	c-8.29,44.041-10.413,88.38-10.953,106.811c-0.152,5.161-0.179,8.29-0.182,8.814c-0.015,2.088,0.806,4.094,2.277,5.576
	c1.471,1.483,3.472,2.315,5.56,2.315h365.61h0.004c2.088,0,4.089-0.833,5.56-2.314c1.471-1.482,2.29-3.488,2.277-5.576
	c-0.015-2.116-0.414-46.801-7.839-96.086c-0.973-6.463-2.065-13.004-3.295-19.539c-5.069-26.907-11.64-49.264-19.533-66.448
	c-4.838-10.529-8.952-21.805-12.299-33.613h31.896C441.844,288.423,448.261,282.004,448.261,274.115z M410.453,15.673
	c-0.199,0.544-0.403,1.11-0.613,1.693c-0.114,0.316-0.233,0.65-0.35,0.977c-0.099,0.278-0.196,0.548-0.298,0.833
	c-0.129,0.359-0.261,0.737-0.392,1.109c-0.096,0.273-0.191,0.539-0.289,0.818c-0.144,0.41-0.293,0.836-0.44,1.259
	c-0.088,0.252-0.174,0.498-0.263,0.755c-0.158,0.457-0.32,0.928-0.482,1.399c-0.085,0.247-0.168,0.488-0.254,0.739
	c-0.165,0.484-0.333,0.98-0.503,1.48c-0.086,0.252-0.169,0.499-0.256,0.754c-0.172,0.512-0.348,1.038-0.525,1.565
	c-0.088,0.262-0.174,0.521-0.262,0.787c-0.178,0.536-0.358,1.083-0.539,1.633c-0.088,0.269-0.177,0.535-0.265,0.807
	c-0.183,0.558-0.367,1.125-0.552,1.698c-0.093,0.287-0.186,0.575-0.28,0.865c-0.185,0.576-0.372,1.16-0.56,1.75
	c-0.094,0.295-0.188,0.589-0.282,0.887c-0.19,0.602-0.382,1.211-0.576,1.826c-0.096,0.305-0.191,0.611-0.287,0.921
	c-0.193,0.619-0.387,1.243-0.582,1.877c-0.099,0.322-0.199,0.645-0.298,0.97c-0.195,0.636-0.391,1.279-0.588,1.929
	c-0.1,0.331-0.201,0.666-0.302,1c-0.197,0.656-0.396,1.317-0.595,1.986c-0.102,0.344-0.205,0.692-0.307,1.04
	c-0.2,0.676-0.4,1.356-0.601,2.045c-0.101,0.347-0.203,0.699-0.304,1.049c-0.204,0.702-0.408,1.405-0.611,2.12
	c-0.102,0.357-0.205,0.721-0.307,1.083c-0.204,0.716-0.406,1.432-0.61,2.16c-0.106,0.375-0.21,0.757-0.316,1.135
	c-0.204,0.732-0.408,1.464-0.612,2.209c-0.102,0.375-0.206,0.757-0.309,1.134c-0.206,0.755-0.412,1.511-0.619,2.279
	c-0.102,0.381-0.205,0.77-0.307,1.155c-0.208,0.781-0.416,1.559-0.624,2.351c-0.095,0.362-0.189,0.73-0.284,1.094
	c-0.214,0.821-0.428,1.64-0.642,2.474c-0.09,0.351-0.18,0.712-0.27,1.065c-0.329,1.291-0.656,2.598-0.983,3.917
	c-0.193,0.783-0.388,1.562-0.581,2.354c-0.111,0.455-0.22,0.917-0.331,1.375c-0.199,0.821-0.397,1.642-0.593,2.472
	c-0.108,0.456-0.214,0.918-0.322,1.376c-0.199,0.846-0.397,1.693-0.595,2.55c-0.101,0.44-0.202,0.887-0.303,1.329
	c-0.203,0.89-0.405,1.781-0.607,2.68c-0.095,0.423-0.188,0.852-0.282,1.277c-0.206,0.929-0.411,1.859-0.613,2.797
	c-0.089,0.412-0.177,0.828-0.265,1.241c-0.208,0.969-0.414,1.939-0.62,2.918c-0.082,0.389-0.162,0.781-0.242,1.17
	c-0.21,1.016-0.419,2.033-0.627,3.061c-0.074,0.365-0.146,0.731-0.219,1.097c-0.213,1.067-0.424,2.137-0.634,3.215
	c-0.065,0.333-0.129,0.669-0.193,1.003c-0.215,1.118-0.428,2.241-0.639,3.372c-0.056,0.304-0.113,0.609-0.169,0.914
	c-0.118,0.638-0.238,1.273-0.355,1.915H124.849c-0.048-0.264-0.098-0.525-0.146-0.788c-0.174-0.956-0.351-1.909-0.53-2.857
	c-0.091-0.483-0.182-0.963-0.274-1.444c-0.178-0.932-0.356-1.861-0.537-2.785c-0.095-0.487-0.191-0.97-0.287-1.453
	c-0.181-0.913-0.363-1.823-0.545-2.728c-0.096-0.475-0.194-0.947-0.29-1.419c-0.187-0.909-0.373-1.816-0.562-2.717
	c-0.094-0.449-0.189-0.893-0.284-1.341c-0.194-0.913-0.388-1.825-0.584-2.729c-0.093-0.426-0.186-0.847-0.279-1.272
	c-0.2-0.912-0.4-1.823-0.602-2.725c-0.087-0.39-0.176-0.774-0.263-1.162c-0.211-0.936-0.423-1.871-0.636-2.796
	c-0.065-0.28-0.13-0.556-0.195-0.835c-0.237-1.02-0.473-2.038-0.713-3.043c-0.016-0.068-0.032-0.134-0.048-0.202
	c-1.446-6.082-2.924-11.897-4.401-17.413c-0.033-0.124-0.067-0.251-0.099-0.375c-0.256-0.953-0.511-1.891-0.767-2.826
	c-0.053-0.196-0.108-0.397-0.161-0.592c-0.245-0.892-0.489-1.771-0.734-2.646c-0.064-0.229-0.127-0.46-0.191-0.688
	c-0.242-0.864-0.484-1.716-0.725-2.563c-0.064-0.222-0.126-0.446-0.189-0.667c-0.245-0.855-0.488-1.697-0.73-2.534
	c-0.057-0.2-0.116-0.401-0.174-0.6c-0.248-0.851-0.495-1.69-0.741-2.521c-0.051-0.172-0.102-0.346-0.153-0.517
	c-0.251-0.846-0.501-1.68-0.75-2.505c-0.044-0.147-0.089-0.296-0.134-0.443c-0.256-0.848-0.511-1.683-0.765-2.509
	c-0.032-0.107-0.066-0.214-0.098-0.321c-0.266-0.867-0.532-1.721-0.794-2.562c-0.015-0.046-0.029-0.092-0.043-0.138
	c-3.119-9.971-5.95-18.125-8.104-24.028H410.453z M420.12,400.547c0.114,0.678,0.228,1.355,0.339,2.032
	c0.099,0.605,0.197,1.209,0.295,1.813c0.119,0.74,0.236,1.479,0.352,2.217c0.078,0.498,0.156,0.997,0.232,1.494H87.429
	c0.014-0.09,0.027-0.179,0.041-0.267c0.036-0.232,0.072-0.465,0.109-0.697c0.171-1.102,0.347-2.206,0.527-3.309
	c0.036-0.223,0.072-0.444,0.109-0.667c0.183-1.121,0.371-2.242,0.561-3.364c0.034-0.205,0.07-0.41,0.104-0.614
	c0.08-0.471,0.165-0.943,0.248-1.414h330.517c0.046,0.262,0.092,0.525,0.138,0.787C419.895,399.222,420.008,399.885,420.12,400.547z
	 M79.585,496.327c0.016-0.541,0.033-1.109,0.053-1.7c0.004-0.121,0.008-0.253,0.013-0.376c0.016-0.472,0.031-0.951,0.049-1.452
	c0.007-0.216,0.017-0.446,0.024-0.668c0.016-0.424,0.03-0.848,0.047-1.293c0.01-0.277,0.022-0.568,0.033-0.853
	c0.016-0.409,0.032-0.816,0.049-1.24c0.013-0.309,0.026-0.632,0.04-0.949c0.019-0.436,0.037-0.87,0.056-1.32
	c0.014-0.304,0.028-0.62,0.042-0.93c0.021-0.468,0.043-0.938,0.065-1.421c0.017-0.349,0.033-0.706,0.051-1.063
	c0.023-0.468,0.046-0.937,0.07-1.418c0.019-0.365,0.038-0.738,0.056-1.11c0.026-0.497,0.052-0.999,0.079-1.509
	c0.02-0.374,0.041-0.753,0.062-1.134c0.029-0.525,0.059-1.053,0.089-1.59c0.022-0.388,0.045-0.778,0.068-1.171
	c0.032-0.546,0.065-1.099,0.098-1.657c0.024-0.4,0.049-0.804,0.074-1.209c0.036-0.57,0.072-1.147,0.109-1.728
	c0.026-0.409,0.052-0.819,0.079-1.234c0.04-0.605,0.08-1.217,0.122-1.834c0.027-0.397,0.054-0.795,0.082-1.197
	c0.045-0.653,0.092-1.314,0.14-1.979c0.028-0.389,0.055-0.775,0.085-1.167c0.051-0.702,0.104-1.415,0.159-2.129
	c0.027-0.361,0.054-0.718,0.083-1.08c0.06-0.771,0.121-1.552,0.185-2.335c0.026-0.325,0.051-0.646,0.077-0.973
	c0.069-0.852,0.141-1.715,0.215-2.581c0.023-0.269,0.044-0.533,0.068-0.802c0.087-1.016,0.178-2.043,0.271-3.076
	c0.01-0.121,0.021-0.24,0.032-0.362c0.535-5.928,1.165-12.14,1.906-18.532c0.007-0.068,0.016-0.136,0.024-0.203
	c0.139-1.194,0.281-2.394,0.428-3.6c0.019-0.155,0.039-0.31,0.057-0.465c0.131-1.065,0.264-2.134,0.4-3.206h338.313
	c3.981,31.278,5.243,59.383,5.637,72.548H79.585V496.327z M432.588,272.75h-27.404c2.359-2.167,3.839-5.276,3.839-8.724v-32.914
	c0-3.447-1.48-6.556-3.838-8.723h27.402V272.75z"/>
<g>
</g>
<g>
</g>
<g>
</g>
<g>
</g>
<g>
</g>
<g>
</g>
<g>
</g>
<g>
</g>
<g>
</g>
<g>
</g>
<g>
</g>
<g>
</g>
<g>
</g>
<g>
</g>
<g>
</g>
</svg>
