<svg width="24" height="24" viewBox="0 0 24 24" fill="none" xmlns="http://www.w3.org/2000/svg">
<path fill-rule="evenodd" clip-rule="evenodd" d="M14.8714 17.5715C14.3586 17.3664 13.7767 17.6158 13.5715 18.1286L12.5715 20.6286C12.3664 21.1414 12.6158 21.7234 13.1286 21.9285C13.6414 22.1336 14.2234 21.8842 14.4285 21.3714L15.4285 18.8714C15.6336 18.3586 15.3842 17.7766 14.8714 17.5715Z" fill="black"/>
<path fill-rule="evenodd" clip-rule="evenodd" d="M9.12863 17.5715C8.61584 17.7766 8.36643 18.3586 8.57154 18.8714L9.57154 21.3714C9.77666 21.8842 10.3586 22.1336 10.8714 21.9285C11.3842 21.7234 11.6336 21.1414 11.4285 20.6286L10.4285 18.1286C10.2234 17.6158 9.64141 17.3664 9.12863 17.5715Z" fill="black"/>
<path fill-rule="evenodd" clip-rule="evenodd" d="M14 4C14 2.89543 13.1046 2 12 2C10.8954 2 10 2.89543 10 4C10 5.10457 10.8954 6 12 6C13.1046 6 14 5.10457 14 4Z" fill="black"/>
<path fill-rule="evenodd" clip-rule="evenodd" d="M17.2071 9.29289C15.8615 7.94724 14.3402 7 12 7C9.65275 7 8.05169 8.03411 6.79291 9.29289C5.69955 10.3863 5.16407 11.1895 4.57534 12.6193C4.36506 13.1299 4.60858 13.7144 5.11927 13.9247C5.62995 14.135 6.21441 13.8914 6.4247 13.3807C6.91289 12.1951 7.30048 11.6137 8.20712 10.7071C9.22547 9.68876 10.3473 9 12 9C13.6599 9 14.7011 9.61526 15.7929 10.7071C16.6996 11.6137 17.0871 12.1951 17.5753 13.3807C17.7856 13.8914 18.3701 14.135 18.8808 13.9247C19.3915 13.7144 19.635 13.1299 19.4247 12.6193C18.836 11.1895 18.3005 10.3863 17.2071 9.29289Z" fill="black"/>
<path fill-rule="evenodd" clip-rule="evenodd" d="M12 9C9.87843 9 8.00002 10.9229 8.00002 13.5C8.00002 16.0771 9.87843 18 12 18C14.1216 18 16 16.0771 16 13.5C16 10.9229 14.1216 9 12 9ZM6.00002 13.5C6.00002 10.002 8.59875 7 12 7C15.4013 7 18 10.002 18 13.5C18 16.998 15.4013 20 12 20C8.59875 20 6.00002 16.998 6.00002 13.5Z" fill="black"/>
</svg>
